{
  "source": "C:\\Users\\Peter\\Desktop\\stuff\\MIUN\\quantitative_research\\video_compression\\videos\\BVI-HD\\BVI-HD_CDVL_videos\\ORIG\\DiverFishAndRock_1920x1080_30fps.mp4",
  "output": "C:\\Users\\Peter\\Desktop\\stuff\\MIUN\\quantitative_research\\video_compression\\compressed_videos\\BVI-HD\\hevc\\2.5\\DiverFishAndRock_1920x1080_30fps_hevc.mp4",
  "codec": "hevc",
  "ok": "Input #0, mov,mp4,m4a,3gp,3g2,mj2, from 'C:\\Users\\Peter\\Desktop\\stuff\\MIUN\\quantitative_research\\video_compression\\videos\\BVI-HD\\BVI-HD_CDVL_videos\\ORIG\\DiverFishAndRock_1920x1080_30fps.mp4':\n  Metadata:\n    major_brand     : isom\n    minor_version   : 512\n    compatible_brands: isomiso2avc1mp41\n    encoder         : Lavf54.28.101\n  Duration: 00:00:05.00, start: 0.000000, bitrate: 228854 kb/s\n  Stream #0:0[0x1](und): Video: h264 (High 4:4:4 Predictive) (avc1 / 0x31637661), yuv420p(progressive), 1920x1080, 228851 kb/s, 30 fps, 30 tbr, 30 tbn (default)\n    Metadata:\n      handler_name    : VideoHandler\n      vendor_id       : [0][0][0][0]\n[out#0/mp4 @ 000001ea020aa980] Codec AVOption b:a (set bitrate (in bits/s)) has not been used for any stream. The most likely reason is either wrong type (e.g. a video option with no video streams) or that it is a private option of some decoder which was not actually used for any stream.\nStream mapping:\n  Stream #0:0 -> #0:0 (h264 (native) -> hevc (libx265))\nPress [q] to stop, [?] for help\n[libx265 @ 000001ea03f5b7c0] Unknown option: \"aq-mode.\nx265 [info]: HEVC encoder version 4.1+190-8f11c33ac\nx265 [info]: build info [Windows][GCC 15.1.0][64 bit] 10bit\nx265 [info]: using cpu capabilities: MMX2 SSE2Fast LZCNT SSSE3 SSE4.2 AVX FMA3 BMI2 AVX2\nx265 [info]: Main 10 profile, Level-4 (Main tier)\nx265 [info]: Thread pool created using 12 threads\nx265 [info]: Slices                              : 1\nx265 [info]: frame threads / pool features       : 3 / wpp(17 rows)\nx265 [info]: Coding QT: max CU size, min CU size : 64 / 8\nx265 [info]: Residual QT: max TU size, max depth : 32 / 1 inter / 1 intra\nx265 [info]: ME / range / subpel / merge         : star / 57 / 3 / 3\nx265 [info]: Keyframe min / max / scenecut / bias  : 25 / 250 / 40 / 5.00 \nx265 [info]: Lookahead / bframes / badapt        : 25 / 4 / 2\nx265 [info]: b-pyramid / weightp / weightb       : 1 / 1 / 0\nx265 [info]: References / ref-limit  cu / depth  : 4 / on / on\nx265 [info]: AQ: mode / str / qg-size / cu-tree  : 2 / 1.0 / 32 / 1\nx265 [info]: Rate Control / qCompress            : ABR-2500 kbps / 0.60\nx265 [info]: VBV/HRD buffer / max-rate / init    : 2500 / 2500 / 0.750\nx265 [info]: tools: rect limit-modes rd=4 psy-rd=2.00 rdoq=2 psy-rdoq=1.00\nx265 [info]: tools: rskip mode=1 signhide tmvp strong-intra-smoothing lslices=4\nx265 [info]: tools: deblock sao dhdr10-info\nOutput #0, mp4, to 'C:\\Users\\Peter\\Desktop\\stuff\\MIUN\\quantitative_research\\video_compression\\compressed_videos\\BVI-HD\\hevc\\2.5\\DiverFishAndRock_1920x1080_30fps_hevc.mp4':\n  Metadata:\n    major_brand     : isom\n    minor_version   : 512\n    compatible_brands: isomiso2avc1mp41\n    encoder         : Lavf62.3.100\n  Stream #0:0(und): Video: hevc (hev1 / 0x31766568), yuv420p10le(tv, progressive), 1920x1080, q=2-31, 2500 kb/s, 30 fps, 15360 tbn (default)\n    Metadata:\n      encoder         : Lavc62.11.100 libx265\n      handler_name    : VideoHandler\n      vendor_id       : [0][0][0][0]\n    Side data:\n      cpb: bitrate max/min/avg: 2500000/0/2500000 buffer size: 2500000 vbv_delay: N/A\nframe=    0 fps=0.0 q=0.0 size=       0KiB time=N/A bitrate=N/A speed=N/A elapsed=0:00:00.53    \nframe=    0 fps=0.0 q=0.0 size=       0KiB time=N/A bitrate=N/A speed=N/A elapsed=0:00:01.05    \nframe=    0 fps=0.0 q=0.0 size=       0KiB time=N/A bitrate=N/A speed=N/A elapsed=0:00:01.57    \nframe=    0 fps=0.0 q=0.0 size=       0KiB time=N/A bitrate=N/A speed=N/A elapsed=0:00:02.08    \nframe=    0 fps=0.0 q=0.0 size=       0KiB time=N/A bitrate=N/A speed=N/A elapsed=0:00:02.59    \nframe=    0 fps=0.0 q=0.0 size=       0KiB time=N/A bitrate=N/A speed=N/A elapsed=0:00:03.11    \nframe=    0 fps=0.0 q=0.0 size=       0KiB time=N/A bitrate=N/A speed=N/A elapsed=0:00:03.63    \nframe=    0 fps=0.0 q=0.0 size=       0KiB time=N/A bitrate=N/A speed=N/A elapsed=0:00:04.14    \nframe=    0 fps=0.0 q=0.0 size=       0KiB time=N/A bitrate=N/A speed=N/A elapsed=0:00:04.66    \nframe=    1 fps=0.2 q=33.3 size=       0KiB time=-00:00:00.03 bitrate=N/A speed=N/A elapsed=0:00:05.18    \nframe=    2 fps=0.4 q=36.6 size=       0KiB time=00:00:00.00 bitrate=N/A speed=   0x elapsed=0:00:05.70    \nframe=    3 fps=0.5 q=40.3 size=       0KiB time=00:00:00.03 bitrate=  10.6kbits/s speed=0.00536x elapsed=0:00:06.22    \nframe=    4 fps=0.6 q=41.5 size=       0KiB time=00:00:00.06 bitrate=   5.3kbits/s speed=0.00989x elapsed=0:00:06.74    \nframe=    4 fps=0.6 q=41.5 size=       0KiB time=00:00:00.06 bitrate=   5.3kbits/s speed=0.0092x elapsed=0:00:07.24    \nframe=    5 fps=0.6 q=40.2 size=       0KiB time=00:00:00.10 bitrate=   3.5kbits/s speed=0.0129x elapsed=0:00:07.77    \nframe=    6 fps=0.7 q=34.1 size=       0KiB time=00:00:00.13 bitrate=   2.6kbits/s speed=0.0161x elapsed=0:00:08.29    \nframe=    7 fps=0.8 q=38.0 size=       0KiB time=00:00:00.16 bitrate=   2.1kbits/s speed=0.0189x elapsed=0:00:08.79    \nframe=    7 fps=0.8 q=38.0 size=       0KiB time=00:00:00.16 bitrate=   2.1kbits/s speed=0.0179x elapsed=0:00:09.31    \nframe=    8 fps=0.8 q=38.1 size=       0KiB time=00:00:00.20 bitrate=   1.8kbits/s speed=0.0203x elapsed=0:00:09.84    \nframe=    9 fps=0.9 q=37.7 size=       0KiB time=00:00:00.23 bitrate=   1.5kbits/s speed=0.0226x elapsed=0:00:10.34    \nframe=    9 fps=0.8 q=37.7 size=       0KiB time=00:00:00.23 bitrate=   1.5kbits/s speed=0.0215x elapsed=0:00:10.86    \nframe=   10 fps=0.9 q=32.6 size=       0KiB time=00:00:00.26 bitrate=   1.3kbits/s speed=0.0234x elapsed=0:00:11.38    \nframe=   11 fps=0.9 q=36.8 size=       0KiB time=00:00:00.30 bitrate=   1.2kbits/s speed=0.0252x elapsed=0:00:11.90    \nframe=   11 fps=0.9 q=36.8 size=       0KiB time=00:00:00.30 bitrate=   1.2kbits/s speed=0.0242x elapsed=0:00:12.40    \nframe=   12 fps=0.9 q=37.7 size=       0KiB time=00:00:00.33 bitrate=   1.1kbits/s speed=0.0258x elapsed=0:00:12.92    \nframe=   13 fps=1.0 q=37.5 size=       0KiB time=00:00:00.36 bitrate=   1.0kbits/s speed=0.0273x elapsed=0:00:13.45    \nframe=   13 fps=0.9 q=37.5 size=       0KiB time=00:00:00.36 bitrate=   1.0kbits/s speed=0.0262x elapsed=0:00:13.96    \nframe=   14 fps=1.0 q=37.3 size=       0KiB time=00:00:00.40 bitrate=   0.9kbits/s speed=0.0276x elapsed=0:00:14.49    \nframe=   15 fps=1.0 q=31.8 size=       0KiB time=00:00:00.43 bitrate=   0.8kbits/s speed=0.0289x elapsed=0:00:15.00    \nframe=   15 fps=1.0 q=31.8 size=       0KiB time=00:00:00.43 bitrate=   0.8kbits/s speed=0.0279x elapsed=0:00:15.51    \nframe=   16 fps=1.0 q=35.8 size=       0KiB time=00:00:00.46 bitrate=   0.8kbits/s speed=0.0291x elapsed=0:00:16.03    \nframe=   16 fps=1.0 q=35.8 size=       0KiB time=00:00:00.46 bitrate=   0.8kbits/s speed=0.0282x elapsed=0:00:16.56    \nframe=   16 fps=0.9 q=35.8 size=       0KiB time=00:00:00.46 bitrate=   0.8kbits/s speed=0.0273x elapsed=0:00:17.09    \nframe=   16 fps=0.9 q=35.8 size=       0KiB time=00:00:00.46 bitrate=   0.8kbits/s speed=0.0264x elapsed=0:00:17.66    \nframe=   16 fps=0.9 q=35.8 size=       0KiB time=00:00:00.46 bitrate=   0.8kbits/s speed=0.0256x elapsed=0:00:18.19    \nframe=   17 fps=0.9 q=37.1 size=       0KiB time=00:00:00.50 bitrate=   0.7kbits/s speed=0.0267x elapsed=0:00:18.73    \nframe=   18 fps=0.9 q=36.9 size=       0KiB time=00:00:00.53 bitrate=   0.7kbits/s speed=0.0277x elapsed=0:00:19.25    \nframe=   18 fps=0.9 q=36.9 size=       0KiB time=00:00:00.53 bitrate=   0.7kbits/s speed=0.027x elapsed=0:00:19.78    \nframe=   18 fps=0.9 q=36.9 size=       0KiB time=00:00:00.53 bitrate=   0.7kbits/s speed=0.0263x elapsed=0:00:20.29    \nframe=   18 fps=0.9 q=36.9 size=       0KiB time=00:00:00.53 bitrate=   0.7kbits/s speed=0.0256x elapsed=0:00:20.81    \nframe=   18 fps=0.8 q=36.9 size=       0KiB time=00:00:00.53 bitrate=   0.7kbits/s speed=0.025x elapsed=0:00:21.33    \nframe=   19 fps=0.9 q=31.3 size=       0KiB time=00:00:00.56 bitrate=   0.6kbits/s speed=0.0259x elapsed=0:00:21.85    \nframe=   19 fps=0.8 q=31.3 size=       0KiB time=00:00:00.56 bitrate=   0.6kbits/s speed=0.0253x elapsed=0:00:22.40    \nframe=   19 fps=0.8 q=31.3 size=       0KiB time=00:00:00.56 bitrate=   0.6kbits/s speed=0.0247x elapsed=0:00:22.91    \nframe=   20 fps=0.9 q=35.0 size=       0KiB time=00:00:00.60 bitrate=   0.6kbits/s speed=0.0256x elapsed=0:00:23.43    \nframe=   20 fps=0.8 q=35.0 size=       0KiB time=00:00:00.60 bitrate=   0.6kbits/s speed=0.025x elapsed=0:00:23.98    \nframe=   20 fps=0.8 q=35.0 size=       0KiB time=00:00:00.60 bitrate=   0.6kbits/s speed=0.0245x elapsed=0:00:24.52    \nframe=   20 fps=0.8 q=35.0 size=       0KiB time=00:00:00.60 bitrate=   0.6kbits/s speed=0.0239x elapsed=0:00:25.06    \nframe=   20 fps=0.8 q=35.0 size=       0KiB time=00:00:00.60 bitrate=   0.6kbits/s speed=0.0234x elapsed=0:00:25.58    \nframe=   21 fps=0.8 q=36.9 size=       0KiB time=00:00:00.63 bitrate=   0.6kbits/s speed=0.0243x elapsed=0:00:26.09    \nframe=   21 fps=0.8 q=36.9 size=       0KiB time=00:00:00.63 bitrate=   0.6kbits/s speed=0.0238x elapsed=0:00:26.62    \nframe=   21 fps=0.8 q=36.9 size=       0KiB time=00:00:00.63 bitrate=   0.6kbits/s speed=0.0233x elapsed=0:00:27.14    \nframe=   21 fps=0.8 q=36.9 size=       0KiB time=00:00:00.63 bitrate=   0.6kbits/s speed=0.0229x elapsed=0:00:27.67    \nframe=   22 fps=0.8 q=36.7 size=       0KiB time=00:00:00.66 bitrate=   0.5kbits/s speed=0.0236x elapsed=0:00:28.20    \nframe=   22 fps=0.8 q=36.7 size=       0KiB time=00:00:00.66 bitrate=   0.5kbits/s speed=0.0232x elapsed=0:00:28.72    \nframe=   23 fps=0.8 q=31.3 size=       0KiB time=00:00:00.70 bitrate=   0.5kbits/s speed=0.0239x elapsed=0:00:29.24    \nframe=   23 fps=0.8 q=31.3 size=       0KiB time=00:00:00.70 bitrate=   0.5kbits/s speed=0.0235x elapsed=0:00:29.75    \nframe=   24 fps=0.8 q=34.1 size=       0KiB time=00:00:00.73 bitrate=   0.5kbits/s speed=0.0242x elapsed=0:00:30.27    \nframe=   24 fps=0.8 q=34.1 size=       0KiB time=00:00:00.73 bitrate=   0.5kbits/s speed=0.0238x elapsed=0:00:30.80    \nframe=   25 fps=0.8 q=36.1 size=       0KiB time=00:00:00.76 bitrate=   0.5kbits/s speed=0.0245x elapsed=0:00:31.32    \nframe=   25 fps=0.8 q=36.1 size=       0KiB time=00:00:00.76 bitrate=   0.5kbits/s speed=0.0241x elapsed=0:00:31.83    \nframe=   25 fps=0.8 q=36.1 size=       0KiB time=00:00:00.76 bitrate=   0.5kbits/s speed=0.0237x elapsed=0:00:32.36    \nframe=   25 fps=0.8 q=36.1 size=       0KiB time=00:00:00.76 bitrate=   0.5kbits/s speed=0.0233x elapsed=0:00:32.90    \nframe=   25 fps=0.7 q=36.1 size=       0KiB time=00:00:00.76 bitrate=   0.5kbits/s speed=0.0229x elapsed=0:00:33.42    \nframe=   25 fps=0.7 q=36.1 size=       0KiB time=00:00:00.76 bitrate=   0.5kbits/s speed=0.0226x elapsed=0:00:33.94    \nframe=   26 fps=0.8 q=35.9 size=       0KiB time=00:00:00.80 bitrate=   0.4kbits/s speed=0.0232x elapsed=0:00:34.46    \nframe=   26 fps=0.7 q=35.9 size=       0KiB time=00:00:00.80 bitrate=   0.4kbits/s speed=0.0229x elapsed=0:00:34.99    \nframe=   26 fps=0.7 q=35.9 size=       0KiB time=00:00:00.80 bitrate=   0.4kbits/s speed=0.0225x elapsed=0:00:35.53    \nframe=   26 fps=0.7 q=35.9 size=       0KiB time=00:00:00.80 bitrate=   0.4kbits/s speed=0.0222x elapsed=0:00:36.08    \nframe=   26 fps=0.7 q=35.9 size=       0KiB time=00:00:00.80 bitrate=   0.4kbits/s speed=0.0218x elapsed=0:00:36.69    \nframe=   26 fps=0.7 q=35.9 size=       0KiB time=00:00:00.80 bitrate=   0.4kbits/s speed=0.0214x elapsed=0:00:37.34    \nframe=   26 fps=0.7 q=35.9 size=       0KiB time=00:00:00.80 bitrate=   0.4kbits/s speed=0.0211x elapsed=0:00:37.94    \nframe=   26 fps=0.7 q=35.9 size=       0KiB time=00:00:00.80 bitrate=   0.4kbits/s speed=0.0208x elapsed=0:00:38.51    \nframe=   26 fps=0.7 q=35.9 size=       0KiB time=00:00:00.80 bitrate=   0.4kbits/s speed=0.0205x elapsed=0:00:39.05    \nframe=   26 fps=0.7 q=35.9 size=       0KiB time=00:00:00.80 bitrate=   0.4kbits/s speed=0.0202x elapsed=0:00:39.64    \nframe=   26 fps=0.6 q=35.9 size=       0KiB time=00:00:00.80 bitrate=   0.4kbits/s speed=0.0199x elapsed=0:00:40.26    \nframe=   26 fps=0.6 q=35.9 size=       0KiB time=00:00:00.80 bitrate=   0.4kbits/s speed=0.0196x elapsed=0:00:40.82    \nframe=   27 fps=0.7 q=35.9 size=       0KiB time=00:00:00.83 bitrate=   0.4kbits/s speed=0.0202x elapsed=0:00:41.35    \nframe=   27 fps=0.6 q=35.9 size=       0KiB time=00:00:00.83 bitrate=   0.4kbits/s speed=0.0199x elapsed=0:00:41.90    \nframe=   27 fps=0.6 q=35.9 size=       0KiB time=00:00:00.83 bitrate=   0.4kbits/s speed=0.0196x elapsed=0:00:42.42    \nframe=   27 fps=0.6 q=35.9 size=       0KiB time=00:00:00.83 bitrate=   0.4kbits/s speed=0.0194x elapsed=0:00:42.96    \nframe=   28 fps=0.6 q=31.4 size=       0KiB time=00:00:00.86 bitrate=   0.4kbits/s speed=0.0199x elapsed=0:00:43.51    \nframe=   28 fps=0.6 q=31.4 size=       0KiB time=00:00:00.86 bitrate=   0.4kbits/s speed=0.0197x elapsed=0:00:44.02    \nframe=   28 fps=0.6 q=31.4 size=       0KiB time=00:00:00.86 bitrate=   0.4kbits/s speed=0.0195x elapsed=0:00:44.55    \nframe=   29 fps=0.6 q=33.0 size=     256KiB time=00:00:00.90 bitrate=2330.6kbits/s speed=0.02x elapsed=0:00:45.08    \nframe=   30 fps=0.7 q=37.0 size=     256KiB time=00:00:00.93 bitrate=2247.3kbits/s speed=0.0205x elapsed=0:00:45.59    \nframe=   30 fps=0.7 q=37.0 size=     256KiB time=00:00:00.93 bitrate=2247.3kbits/s speed=0.0202x elapsed=0:00:46.11    \nframe=   30 fps=0.6 q=37.0 size=     256KiB time=00:00:00.93 bitrate=2247.3kbits/s speed=0.02x elapsed=0:00:46.63    \nframe=   30 fps=0.6 q=37.0 size=     256KiB time=00:00:00.93 bitrate=2247.3kbits/s speed=0.0198x elapsed=0:00:47.16    \nframe=   31 fps=0.7 q=36.8 size=     256KiB time=00:00:00.96 bitrate=2169.8kbits/s speed=0.0203x elapsed=0:00:47.68    \nframe=   31 fps=0.6 q=36.8 size=     256KiB time=00:00:00.96 bitrate=2169.8kbits/s speed=0.0201x elapsed=0:00:48.20    \nframe=   31 fps=0.6 q=36.8 size=     256KiB time=00:00:00.96 bitrate=2169.8kbits/s speed=0.0198x elapsed=0:00:48.73    \nframe=   32 fps=0.6 q=37.0 size=     256KiB time=00:00:01.00 bitrate=2097.5kbits/s speed=0.0203x elapsed=0:00:49.28    \nframe=   32 fps=0.6 q=37.0 size=     256KiB time=00:00:01.00 bitrate=2097.5kbits/s speed=0.0201x elapsed=0:00:49.81    \nframe=   33 fps=0.7 q=31.3 size=     256KiB time=00:00:01.03 bitrate=2029.8kbits/s speed=0.0205x elapsed=0:00:50.35    \nframe=   33 fps=0.6 q=31.3 size=     256KiB time=00:00:01.03 bitrate=2029.8kbits/s speed=0.0203x elapsed=0:00:50.90    \nframe=   33 fps=0.6 q=31.3 size=     256KiB time=00:00:01.03 bitrate=2029.8kbits/s speed=0.0201x elapsed=0:00:51.43    \nframe=   34 fps=0.7 q=34.8 size=     256KiB time=00:00:01.06 bitrate=1966.4kbits/s speed=0.0205x elapsed=0:00:51.95    \nframe=   34 fps=0.6 q=34.8 size=     256KiB time=00:00:01.06 bitrate=1966.4kbits/s speed=0.0203x elapsed=0:00:52.49    \nframe=   34 fps=0.6 q=34.8 size=     256KiB time=00:00:01.06 bitrate=1966.4kbits/s speed=0.0201x elapsed=0:00:53.04    \nframe=   34 fps=0.6 q=34.8 size=     256KiB time=00:00:01.06 bitrate=1966.4kbits/s speed=0.0199x elapsed=0:00:53.58    \nframe=   34 fps=0.6 q=34.8 size=     256KiB time=00:00:01.06 bitrate=1966.4kbits/s speed=0.0197x elapsed=0:00:54.12    \nframe=   34 fps=0.6 q=34.8 size=     256KiB time=00:00:01.06 bitrate=1966.4kbits/s speed=0.0195x elapsed=0:00:54.66    \nframe=   34 fps=0.6 q=34.8 size=     256KiB time=00:00:01.06 bitrate=1966.4kbits/s speed=0.0193x elapsed=0:00:55.21    \nframe=   35 fps=0.6 q=37.0 size=     256KiB time=00:00:01.10 bitrate=1906.8kbits/s speed=0.0197x elapsed=0:00:55.73    \nframe=   35 fps=0.6 q=37.0 size=     256KiB time=00:00:01.10 bitrate=1906.8kbits/s speed=0.0196x elapsed=0:00:56.25    \nframe=   35 fps=0.6 q=37.0 size=     256KiB time=00:00:01.10 bitrate=1906.8kbits/s speed=0.0194x elapsed=0:00:56.77    \nframe=   35 fps=0.6 q=37.0 size=     256KiB time=00:00:01.10 bitrate=1906.8kbits/s speed=0.0192x elapsed=0:00:57.30    \nframe=   35 fps=0.6 q=37.0 size=     256KiB time=00:00:01.10 bitrate=1906.8kbits/s speed=0.019x elapsed=0:00:57.86    \nframe=   35 fps=0.6 q=37.0 size=     256KiB time=00:00:01.10 bitrate=1906.8kbits/s speed=0.0188x elapsed=0:00:58.43    \nframe=   35 fps=0.6 q=37.0 size=     256KiB time=00:00:01.10 bitrate=1906.8kbits/s speed=0.0186x elapsed=0:00:59.00    \nframe=   35 fps=0.6 q=37.0 size=     256KiB time=00:00:01.10 bitrate=1906.8kbits/s speed=0.0185x elapsed=0:00:59.56    \nframe=   35 fps=0.6 q=37.0 size=     256KiB time=00:00:01.10 bitrate=1906.8kbits/s speed=0.0183x elapsed=0:01:00.13    \nframe=   36 fps=0.6 q=36.8 size=     256KiB time=00:00:01.13 bitrate=1850.7kbits/s speed=0.0187x elapsed=0:01:00.68    \nframe=   36 fps=0.6 q=36.8 size=     256KiB time=00:00:01.13 bitrate=1850.7kbits/s speed=0.0185x elapsed=0:01:01.23    \nframe=   36 fps=0.6 q=36.8 size=     256KiB time=00:00:01.13 bitrate=1850.7kbits/s speed=0.0183x elapsed=0:01:01.80    \nframe=   36 fps=0.6 q=36.8 size=     256KiB time=00:00:01.13 bitrate=1850.7kbits/s speed=0.0182x elapsed=0:01:02.35    \nframe=   37 fps=0.6 q=31.2 size=     256KiB time=00:00:01.16 bitrate=1797.9kbits/s speed=0.0186x elapsed=0:01:02.89    \nframe=   37 fps=0.6 q=31.2 size=     256KiB time=00:00:01.16 bitrate=1797.9kbits/s speed=0.0184x elapsed=0:01:03.40    \nframe=   37 fps=0.6 q=31.2 size=     256KiB time=00:00:01.16 bitrate=1797.9kbits/s speed=0.0182x elapsed=0:01:03.96    \nframe=   37 fps=0.6 q=31.2 size=     256KiB time=00:00:01.16 bitrate=1797.9kbits/s speed=0.0181x elapsed=0:01:04.53    \nframe=   37 fps=0.6 q=31.2 size=     256KiB time=00:00:01.16 bitrate=1797.9kbits/s speed=0.0179x elapsed=0:01:05.09    \nframe=   37 fps=0.6 q=31.2 size=     256KiB time=00:00:01.16 bitrate=1797.9kbits/s speed=0.0178x elapsed=0:01:05.63    \nframe=   37 fps=0.6 q=31.2 size=     256KiB time=00:00:01.16 bitrate=1797.9kbits/s speed=0.0176x elapsed=0:01:06.14    \nframe=   37 fps=0.6 q=31.2 size=     256KiB time=00:00:01.16 bitrate=1797.9kbits/s speed=0.0175x elapsed=0:01:06.67    \nframe=   37 fps=0.6 q=31.2 size=     256KiB time=00:00:01.16 bitrate=1797.9kbits/s speed=0.0174x elapsed=0:01:07.23    \nframe=   38 fps=0.6 q=34.7 size=     256KiB time=00:00:01.20 bitrate=1747.9kbits/s speed=0.0177x elapsed=0:01:07.82    \nframe=   38 fps=0.6 q=34.7 size=     256KiB time=00:00:01.20 bitrate=1747.9kbits/s speed=0.0175x elapsed=0:01:08.38    \nframe=   38 fps=0.6 q=34.7 size=     256KiB time=00:00:01.20 bitrate=1747.9kbits/s speed=0.0174x elapsed=0:01:08.92    \nframe=   38 fps=0.5 q=34.7 size=     256KiB time=00:00:01.20 bitrate=1747.9kbits/s speed=0.0173x elapsed=0:01:09.46    \nframe=   38 fps=0.5 q=34.7 size=     256KiB time=00:00:01.20 bitrate=1747.9kbits/s speed=0.0171x elapsed=0:01:09.98    \nframe=   38 fps=0.5 q=34.7 size=     256KiB time=00:00:01.20 bitrate=1747.9kbits/s speed=0.017x elapsed=0:01:10.53    \nframe=   38 fps=0.5 q=34.7 size=     256KiB time=00:00:01.20 bitrate=1747.9kbits/s speed=0.0169x elapsed=0:01:11.10    \nframe=   38 fps=0.5 q=34.7 size=     256KiB time=00:00:01.20 bitrate=1747.9kbits/s speed=0.0167x elapsed=0:01:11.71    \nframe=   38 fps=0.5 q=34.7 size=     256KiB time=00:00:01.20 bitrate=1747.9kbits/s speed=0.0166x elapsed=0:01:12.28    \nframe=   38 fps=0.5 q=34.7 size=     256KiB time=00:00:01.20 bitrate=1747.9kbits/s speed=0.0165x elapsed=0:01:12.83    \nframe=   38 fps=0.5 q=34.7 size=     256KiB time=00:00:01.20 bitrate=1747.9kbits/s speed=0.0164x elapsed=0:01:13.37    \nframe=   39 fps=0.5 q=36.7 size=     256KiB time=00:00:01.23 bitrate=1700.7kbits/s speed=0.0167x elapsed=0:01:13.97    \nframe=   39 fps=0.5 q=36.7 size=     256KiB time=00:00:01.23 bitrate=1700.7kbits/s speed=0.0165x elapsed=0:01:14.52    \nframe=   39 fps=0.5 q=36.7 size=     256KiB time=00:00:01.23 bitrate=1700.7kbits/s speed=0.0164x elapsed=0:01:15.08    \nframe=   39 fps=0.5 q=36.7 size=     256KiB time=00:00:01.23 bitrate=1700.7kbits/s speed=0.0163x elapsed=0:01:15.61    \nframe=   39 fps=0.5 q=36.7 size=     256KiB time=00:00:01.23 bitrate=1700.7kbits/s speed=0.0162x elapsed=0:01:16.12    \nframe=   39 fps=0.5 q=36.7 size=     256KiB time=00:00:01.23 bitrate=1700.7kbits/s speed=0.0161x elapsed=0:01:16.68    \nframe=   40 fps=0.5 q=36.5 size=     256KiB time=00:00:01.26 bitrate=1655.9kbits/s speed=0.0164x elapsed=0:01:17.24    \nframe=   40 fps=0.5 q=36.5 size=     256KiB time=00:00:01.26 bitrate=1655.9kbits/s speed=0.0163x elapsed=0:01:17.78    \nframe=   40 fps=0.5 q=36.5 size=     256KiB time=00:00:01.26 bitrate=1655.9kbits/s speed=0.0162x elapsed=0:01:18.35    \nframe=   40 fps=0.5 q=36.5 size=     256KiB time=00:00:01.26 bitrate=1655.9kbits/s speed=0.016x elapsed=0:01:18.93    \nframe=   40 fps=0.5 q=36.5 size=     256KiB time=00:00:01.26 bitrate=1655.9kbits/s speed=0.0159x elapsed=0:01:19.52    \nframe=   41 fps=0.5 q=30.9 size=     256KiB time=00:00:01.30 bitrate=1613.5kbits/s speed=0.0162x elapsed=0:01:20.12    \nframe=   41 fps=0.5 q=30.9 size=     256KiB time=00:00:01.30 bitrate=1613.5kbits/s speed=0.0161x elapsed=0:01:20.76    \nframe=   41 fps=0.5 q=30.9 size=     256KiB time=00:00:01.30 bitrate=1613.5kbits/s speed=0.016x elapsed=0:01:21.35    \nframe=   41 fps=0.5 q=30.9 size=     256KiB time=00:00:01.30 bitrate=1613.5kbits/s speed=0.0159x elapsed=0:01:21.91    \nframe=   41 fps=0.5 q=30.9 size=     256KiB time=00:00:01.30 bitrate=1613.5kbits/s speed=0.0158x elapsed=0:01:22.43    \nframe=   41 fps=0.5 q=30.9 size=     256KiB time=00:00:01.30 bitrate=1613.5kbits/s speed=0.0157x elapsed=0:01:22.95    \nframe=   42 fps=0.5 q=33.9 size=     256KiB time=00:00:01.33 bitrate=1573.1kbits/s speed=0.016x elapsed=0:01:23.51    \nframe=   42 fps=0.5 q=33.9 size=     256KiB time=00:00:01.33 bitrate=1573.1kbits/s speed=0.0159x elapsed=0:01:24.04    \nframe=   42 fps=0.5 q=33.9 size=     256KiB time=00:00:01.33 bitrate=1573.1kbits/s speed=0.0158x elapsed=0:01:24.56    \nframe=   42 fps=0.5 q=33.9 size=     256KiB time=00:00:01.33 bitrate=1573.1kbits/s speed=0.0157x elapsed=0:01:25.09    \nframe=   42 fps=0.5 q=33.9 size=     256KiB time=00:00:01.33 bitrate=1573.1kbits/s speed=0.0156x elapsed=0:01:25.61    \nframe=   43 fps=0.5 q=36.3 size=     256KiB time=00:00:01.36 bitrate=1534.8kbits/s speed=0.0159x elapsed=0:01:26.13    \nframe=   43 fps=0.5 q=36.3 size=     256KiB time=00:00:01.36 bitrate=1534.8kbits/s speed=0.0158x elapsed=0:01:26.65    \nframe=   43 fps=0.5 q=36.3 size=     256KiB time=00:00:01.36 bitrate=1534.8kbits/s speed=0.0157x elapsed=0:01:27.15    \nframe=   44 fps=0.5 q=36.1 size=     256KiB time=00:00:01.40 bitrate=1498.2kbits/s speed=0.016x elapsed=0:01:27.67    \nframe=   44 fps=0.5 q=36.1 size=     256KiB time=00:00:01.40 bitrate=1498.2kbits/s speed=0.0159x elapsed=0:01:28.19    \nframe=   44 fps=0.5 q=36.1 size=     256KiB time=00:00:01.40 bitrate=1498.2kbits/s speed=0.0158x elapsed=0:01:28.74    \nframe=   44 fps=0.5 q=36.1 size=     256KiB time=00:00:01.40 bitrate=1498.2kbits/s speed=0.0157x elapsed=0:01:29.28    \nframe=   44 fps=0.5 q=36.1 size=     256KiB time=00:00:01.40 bitrate=1498.2kbits/s speed=0.0156x elapsed=0:01:29.84    \nframe=   44 fps=0.5 q=36.1 size=     256KiB time=00:00:01.40 bitrate=1498.2kbits/s speed=0.0155x elapsed=0:01:30.38    \nframe=   44 fps=0.5 q=36.1 size=     256KiB time=00:00:01.40 bitrate=1498.2kbits/s speed=0.0154x elapsed=0:01:30.93    \nframe=   44 fps=0.5 q=36.1 size=     256KiB time=00:00:01.40 bitrate=1498.2kbits/s speed=0.0153x elapsed=0:01:31.51    \nframe=   44 fps=0.5 q=36.1 size=     256KiB time=00:00:01.40 bitrate=1498.2kbits/s speed=0.0152x elapsed=0:01:32.07    \nframe=   44 fps=0.5 q=36.1 size=     256KiB time=00:00:01.40 bitrate=1498.2kbits/s speed=0.0151x elapsed=0:01:32.67    \nframe=   45 fps=0.5 q=36.2 size=     256KiB time=00:00:01.43 bitrate=1463.4kbits/s speed=0.0154x elapsed=0:01:33.24    \nframe=   45 fps=0.5 q=36.2 size=     256KiB time=00:00:01.43 bitrate=1463.4kbits/s speed=0.0153x elapsed=0:01:33.78    \nframe=   45 fps=0.5 q=36.2 size=     256KiB time=00:00:01.43 bitrate=1463.4kbits/s speed=0.0152x elapsed=0:01:34.33    \nframe=   45 fps=0.5 q=36.2 size=     256KiB time=00:00:01.43 bitrate=1463.4kbits/s speed=0.0151x elapsed=0:01:34.92    \nframe=   45 fps=0.5 q=36.2 size=     256KiB time=00:00:01.43 bitrate=1463.4kbits/s speed=0.015x elapsed=0:01:35.48    \nframe=   45 fps=0.5 q=36.2 size=     256KiB time=00:00:01.43 bitrate=1463.4kbits/s speed=0.0149x elapsed=0:01:36.03    \nframe=   45 fps=0.5 q=36.2 size=     256KiB time=00:00:01.43 bitrate=1463.4kbits/s speed=0.0148x elapsed=0:01:36.62    \nframe=   45 fps=0.5 q=36.2 size=     256KiB time=00:00:01.43 bitrate=1463.4kbits/s speed=0.0147x elapsed=0:01:37.24    \nframe=   45 fps=0.5 q=36.2 size=     256KiB time=00:00:01.43 bitrate=1463.4kbits/s speed=0.0147x elapsed=0:01:37.78    \nframe=   46 fps=0.5 q=31.2 size=     256KiB time=00:00:01.46 bitrate=1430.1kbits/s speed=0.0149x elapsed=0:01:38.33    \nframe=   46 fps=0.5 q=31.2 size=     256KiB time=00:00:01.46 bitrate=1430.1kbits/s speed=0.0148x elapsed=0:01:38.89    \nframe=   46 fps=0.5 q=31.2 size=     256KiB time=00:00:01.46 bitrate=1430.1kbits/s speed=0.0148x elapsed=0:01:39.41    \nframe=   46 fps=0.5 q=31.2 size=     256KiB time=00:00:01.46 bitrate=1430.1kbits/s speed=0.0147x elapsed=0:01:39.95    \nframe=   46 fps=0.5 q=31.2 size=     256KiB time=00:00:01.46 bitrate=1430.1kbits/s speed=0.0146x elapsed=0:01:40.53    \nframe=   46 fps=0.5 q=31.2 size=     256KiB time=00:00:01.46 bitrate=1430.1kbits/s speed=0.0145x elapsed=0:01:41.12    \nframe=   47 fps=0.5 q=33.9 size=     256KiB time=00:00:01.50 bitrate=1398.3kbits/s speed=0.0148x elapsed=0:01:41.66    \nframe=   47 fps=0.5 q=33.9 size=     256KiB time=00:00:01.50 bitrate=1398.3kbits/s speed=0.0147x elapsed=0:01:42.19    \nframe=   47 fps=0.5 q=33.9 size=     256KiB time=00:00:01.50 bitrate=1398.3kbits/s speed=0.0146x elapsed=0:01:42.75    \nframe=   47 fps=0.5 q=33.9 size=     256KiB time=00:00:01.50 bitrate=1398.3kbits/s speed=0.0145x elapsed=0:01:43.31    \nframe=   47 fps=0.5 q=33.9 size=     256KiB time=00:00:01.50 bitrate=1398.3kbits/s speed=0.0144x elapsed=0:01:43.89    \nframe=   47 fps=0.5 q=33.9 size=     256KiB time=00:00:01.50 bitrate=1398.3kbits/s speed=0.0144x elapsed=0:01:44.43    \nframe=   47 fps=0.4 q=33.9 size=     256KiB time=00:00:01.50 bitrate=1398.3kbits/s speed=0.0143x elapsed=0:01:45.01    \nframe=   47 fps=0.4 q=33.9 size=     256KiB time=00:00:01.50 bitrate=1398.3kbits/s speed=0.0142x elapsed=0:01:45.57    \nframe=   47 fps=0.4 q=33.9 size=     256KiB time=00:00:01.50 bitrate=1398.3kbits/s speed=0.0141x elapsed=0:01:46.09    \nframe=   47 fps=0.4 q=33.9 size=     256KiB time=00:00:01.50 bitrate=1398.3kbits/s speed=0.0141x elapsed=0:01:46.61    \nframe=   47 fps=0.4 q=33.9 size=     256KiB time=00:00:01.50 bitrate=1398.3kbits/s speed=0.014x elapsed=0:01:47.18    \nframe=   47 fps=0.4 q=33.9 size=     256KiB time=00:00:01.50 bitrate=1398.3kbits/s speed=0.0139x elapsed=0:01:47.76    \nframe=   47 fps=0.4 q=33.9 size=     256KiB time=00:00:01.50 bitrate=1398.3kbits/s speed=0.0138x elapsed=0:01:48.34    \nframe=   48 fps=0.4 q=37.0 size=     256KiB time=00:00:01.53 bitrate=1367.9kbits/s speed=0.0141x elapsed=0:01:48.90    \nframe=   48 fps=0.4 q=37.0 size=     256KiB time=00:00:01.53 bitrate=1367.9kbits/s speed=0.014x elapsed=0:01:49.43    \nframe=   48 fps=0.4 q=37.0 size=     256KiB time=00:00:01.53 bitrate=1367.9kbits/s speed=0.0139x elapsed=0:01:49.97    \nframe=   48 fps=0.4 q=37.0 size=     256KiB time=00:00:01.53 bitrate=1367.9kbits/s speed=0.0139x elapsed=0:01:50.51    \nframe=   48 fps=0.4 q=37.0 size=     256KiB time=00:00:01.53 bitrate=1367.9kbits/s speed=0.0138x elapsed=0:01:51.07    \nframe=   48 fps=0.4 q=37.0 size=     256KiB time=00:00:01.53 bitrate=1367.9kbits/s speed=0.0137x elapsed=0:01:51.63    \nframe=   48 fps=0.4 q=37.0 size=     256KiB time=00:00:01.53 bitrate=1367.9kbits/s speed=0.0137x elapsed=0:01:52.17    \nframe=   49 fps=0.4 q=36.7 size=     256KiB time=00:00:01.56 bitrate=1338.8kbits/s speed=0.0139x elapsed=0:01:52.72    \nframe=   49 fps=0.4 q=36.7 size=     256KiB time=00:00:01.56 bitrate=1338.8kbits/s speed=0.0138x elapsed=0:01:53.26    \nframe=   49 fps=0.4 q=36.7 size=     256KiB time=00:00:01.56 bitrate=1338.8kbits/s speed=0.0138x elapsed=0:01:53.81    \nframe=   49 fps=0.4 q=36.7 size=     256KiB time=00:00:01.56 bitrate=1338.8kbits/s speed=0.0137x elapsed=0:01:54.34    \nframe=   50 fps=0.4 q=31.1 size=     256KiB time=00:00:01.60 bitrate=1310.9kbits/s speed=0.0139x elapsed=0:01:54.89    \nframe=   50 fps=0.4 q=31.1 size=     256KiB time=00:00:01.60 bitrate=1310.9kbits/s speed=0.0139x elapsed=0:01:55.46    \nframe=   50 fps=0.4 q=31.1 size=     256KiB time=00:00:01.60 bitrate=1310.9kbits/s speed=0.0138x elapsed=0:01:56.10    \nframe=   50 fps=0.4 q=31.1 size=     256KiB time=00:00:01.60 bitrate=1310.9kbits/s speed=0.0137x elapsed=0:01:56.70    \nframe=   50 fps=0.4 q=31.1 size=     256KiB time=00:00:01.60 bitrate=1310.9kbits/s speed=0.0136x elapsed=0:01:57.29    \nframe=   50 fps=0.4 q=31.1 size=     256KiB time=00:00:01.60 bitrate=1310.9kbits/s speed=0.0136x elapsed=0:01:57.83    \nframe=   50 fps=0.4 q=31.1 size=     256KiB time=00:00:01.60 bitrate=1310.9kbits/s speed=0.0135x elapsed=0:01:58.43    \nframe=   50 fps=0.4 q=31.1 size=     256KiB time=00:00:01.60 bitrate=1310.9kbits/s speed=0.0134x elapsed=0:01:59.01    \nframe=   50 fps=0.4 q=31.1 size=     256KiB time=00:00:01.60 bitrate=1310.9kbits/s speed=0.0134x elapsed=0:01:59.55    \nframe=   50 fps=0.4 q=31.1 size=     256KiB time=00:00:01.60 bitrate=1310.9kbits/s speed=0.0133x elapsed=0:02:00.14    \nframe=   51 fps=0.4 q=34.5 size=     256KiB time=00:00:01.63 bitrate=1284.2kbits/s speed=0.0135x elapsed=0:02:00.71    \nframe=   51 fps=0.4 q=34.5 size=     256KiB time=00:00:01.63 bitrate=1284.2kbits/s speed=0.0135x elapsed=0:02:01.24    \nframe=   51 fps=0.4 q=34.5 size=     256KiB time=00:00:01.63 bitrate=1284.2kbits/s speed=0.0134x elapsed=0:02:01.76    \nframe=   51 fps=0.4 q=34.5 size=     256KiB time=00:00:01.63 bitrate=1284.2kbits/s speed=0.0134x elapsed=0:02:02.28    \nframe=   51 fps=0.4 q=34.5 size=     256KiB time=00:00:01.63 bitrate=1284.2kbits/s speed=0.0133x elapsed=0:02:02.82    \nframe=   51 fps=0.4 q=34.5 size=     256KiB time=00:00:01.63 bitrate=1284.2kbits/s speed=0.0132x elapsed=0:02:03.36    \nframe=   52 fps=0.4 q=36.8 size=     512KiB time=00:00:01.66 bitrate=2516.8kbits/s speed=0.0135x elapsed=0:02:03.88    \nframe=   52 fps=0.4 q=36.8 size=     512KiB time=00:00:01.66 bitrate=2516.8kbits/s speed=0.0134x elapsed=0:02:04.41    \nframe=   53 fps=0.4 q=36.2 size=     512KiB time=00:00:01.70 bitrate=2467.4kbits/s speed=0.0136x elapsed=0:02:04.98    \nframe=   53 fps=0.4 q=36.2 size=     512KiB time=00:00:01.70 bitrate=2467.4kbits/s speed=0.0135x elapsed=0:02:05.50    \nframe=   53 fps=0.4 q=36.2 size=     512KiB time=00:00:01.70 bitrate=2467.4kbits/s speed=0.0135x elapsed=0:02:06.04    \nframe=   54 fps=0.4 q=30.8 size=     512KiB time=00:00:01.73 bitrate=2420.0kbits/s speed=0.0137x elapsed=0:02:06.56    \nframe=   54 fps=0.4 q=30.8 size=     512KiB time=00:00:01.73 bitrate=2420.0kbits/s speed=0.0136x elapsed=0:02:07.08    \nframe=   54 fps=0.4 q=30.8 size=     512KiB time=00:00:01.73 bitrate=2420.0kbits/s speed=0.0136x elapsed=0:02:07.60    \nframe=   55 fps=0.4 q=34.5 size=     512KiB time=00:00:01.76 bitrate=2374.3kbits/s speed=0.0138x elapsed=0:02:08.11    \nframe=   55 fps=0.4 q=34.5 size=     512KiB time=00:00:01.76 bitrate=2374.3kbits/s speed=0.0137x elapsed=0:02:08.63    \nframe=   55 fps=0.4 q=34.5 size=     512KiB time=00:00:01.76 bitrate=2374.3kbits/s speed=0.0137x elapsed=0:02:09.15    \nframe=   55 fps=0.4 q=34.5 size=     512KiB time=00:00:01.76 bitrate=2374.3kbits/s speed=0.0136x elapsed=0:02:09.67    \nframe=   56 fps=0.4 q=36.2 size=     512KiB time=00:00:01.80 bitrate=2330.4kbits/s speed=0.0138x elapsed=0:02:10.19    \nframe=   56 fps=0.4 q=36.2 size=     512KiB time=00:00:01.80 bitrate=2330.4kbits/s speed=0.0138x elapsed=0:02:10.70    \nframe=   56 fps=0.4 q=36.2 size=     512KiB time=00:00:01.80 bitrate=2330.4kbits/s speed=0.0137x elapsed=0:02:11.24    \nframe=   56 fps=0.4 q=36.2 size=     512KiB time=00:00:01.80 bitrate=2330.4kbits/s speed=0.0137x elapsed=0:02:11.77    \nframe=   57 fps=0.4 q=35.9 size=     512KiB time=00:00:01.83 bitrate=2288.0kbits/s speed=0.0139x elapsed=0:02:12.30    \nframe=   57 fps=0.4 q=35.9 size=     512KiB time=00:00:01.83 bitrate=2288.0kbits/s speed=0.0138x elapsed=0:02:12.82    \nframe=   57 fps=0.4 q=35.9 size=     512KiB time=00:00:01.83 bitrate=2288.0kbits/s speed=0.0137x elapsed=0:02:13.37    \nframe=   57 fps=0.4 q=35.9 size=     512KiB time=00:00:01.83 bitrate=2288.0kbits/s speed=0.0137x elapsed=0:02:13.92    \nframe=   58 fps=0.4 q=30.7 size=     512KiB time=00:00:01.86 bitrate=2247.1kbits/s speed=0.0139x elapsed=0:02:14.46    \nframe=   58 fps=0.4 q=30.7 size=     512KiB time=00:00:01.86 bitrate=2247.1kbits/s speed=0.0138x elapsed=0:02:15.02    \nframe=   59 fps=0.4 q=31.9 size=     512KiB time=00:00:01.90 bitrate=2207.7kbits/s speed=0.014x elapsed=0:02:15.55    \nframe=   60 fps=0.4 q=36.1 size=     512KiB time=00:00:01.93 bitrate=2169.7kbits/s speed=0.0142x elapsed=0:02:16.09    \nframe=   60 fps=0.4 q=36.1 size=     512KiB time=00:00:01.93 bitrate=2169.7kbits/s speed=0.0142x elapsed=0:02:16.59    \nframe=   60 fps=0.4 q=36.1 size=     512KiB time=00:00:01.93 bitrate=2169.7kbits/s speed=0.0141x elapsed=0:02:17.11    \nframe=   61 fps=0.4 q=35.9 size=     512KiB time=00:00:01.96 bitrate=2132.9kbits/s speed=0.0143x elapsed=0:02:17.65    \nframe=   61 fps=0.4 q=35.9 size=     512KiB time=00:00:01.96 bitrate=2132.9kbits/s speed=0.0142x elapsed=0:02:18.18    \nframe=   61 fps=0.4 q=35.9 size=     512KiB time=00:00:01.96 bitrate=2132.9kbits/s speed=0.0142x elapsed=0:02:18.71    \nframe=   61 fps=0.4 q=35.9 size=     512KiB time=00:00:01.96 bitrate=2132.9kbits/s speed=0.0141x elapsed=0:02:19.25    \nframe=   61 fps=0.4 q=35.9 size=     512KiB time=00:00:01.96 bitrate=2132.9kbits/s speed=0.0141x elapsed=0:02:19.77    \nframe=   63 fps=0.4 q=30.7 size=     512KiB time=00:00:02.03 bitrate=2062.9kbits/s speed=0.0145x elapsed=0:02:20.31    \nframe=   63 fps=0.4 q=30.7 size=     512KiB time=00:00:02.03 bitrate=2062.9kbits/s speed=0.0144x elapsed=0:02:20.85    \nframe=   63 fps=0.4 q=30.7 size=     512KiB time=00:00:02.03 bitrate=2062.9kbits/s speed=0.0144x elapsed=0:02:21.39    \nframe=   63 fps=0.4 q=30.7 size=     512KiB time=00:00:02.03 bitrate=2062.9kbits/s speed=0.0143x elapsed=0:02:22.00    \nframe=   63 fps=0.4 q=30.7 size=     512KiB time=00:00:02.03 bitrate=2062.9kbits/s speed=0.0143x elapsed=0:02:22.57    \nframe=   63 fps=0.4 q=30.7 size=     512KiB time=00:00:02.03 bitrate=2062.9kbits/s speed=0.0142x elapsed=0:02:23.16    \nframe=   64 fps=0.4 q=34.3 size=     512KiB time=00:00:02.06 bitrate=2029.7kbits/s speed=0.0144x elapsed=0:02:23.68    \nframe=   64 fps=0.4 q=34.3 size=     512KiB time=00:00:02.06 bitrate=2029.7kbits/s speed=0.0143x elapsed=0:02:24.23    \nframe=   64 fps=0.4 q=34.3 size=     512KiB time=00:00:02.06 bitrate=2029.7kbits/s speed=0.0143x elapsed=0:02:24.73    \nframe=   64 fps=0.4 q=34.3 size=     512KiB time=00:00:02.06 bitrate=2029.7kbits/s speed=0.0142x elapsed=0:02:25.26    \nframe=   64 fps=0.4 q=34.3 size=     512KiB time=00:00:02.06 bitrate=2029.7kbits/s speed=0.0142x elapsed=0:02:25.79    \nframe=   64 fps=0.4 q=34.3 size=     512KiB time=00:00:02.06 bitrate=2029.7kbits/s speed=0.0141x elapsed=0:02:26.31    \nframe=   64 fps=0.4 q=34.3 size=     512KiB time=00:00:02.06 bitrate=2029.7kbits/s speed=0.0141x elapsed=0:02:26.85    \nframe=   64 fps=0.4 q=34.3 size=     512KiB time=00:00:02.06 bitrate=2029.7kbits/s speed=0.014x elapsed=0:02:27.43    \nframe=   64 fps=0.4 q=34.3 size=     512KiB time=00:00:02.06 bitrate=2029.7kbits/s speed=0.014x elapsed=0:02:28.02    \nframe=   65 fps=0.4 q=36.1 size=     512KiB time=00:00:02.10 bitrate=1997.5kbits/s speed=0.0141x elapsed=0:02:28.57    \nframe=   65 fps=0.4 q=36.1 size=     512KiB time=00:00:02.10 bitrate=1997.5kbits/s speed=0.0141x elapsed=0:02:29.10    \nframe=   65 fps=0.4 q=36.1 size=     512KiB time=00:00:02.10 bitrate=1997.5kbits/s speed=0.014x elapsed=0:02:29.68    \nframe=   65 fps=0.4 q=36.1 size=     512KiB time=00:00:02.10 bitrate=1997.5kbits/s speed=0.014x elapsed=0:02:30.25    \nframe=   66 fps=0.4 q=35.9 size=     512KiB time=00:00:02.13 bitrate=1966.2kbits/s speed=0.0141x elapsed=0:02:30.77    \nframe=   66 fps=0.4 q=35.9 size=     512KiB time=00:00:02.13 bitrate=1966.2kbits/s speed=0.0141x elapsed=0:02:31.40    \nframe=   66 fps=0.4 q=35.9 size=     512KiB time=00:00:02.13 bitrate=1966.2kbits/s speed=0.014x elapsed=0:02:31.94    \nframe=   66 fps=0.4 q=35.9 size=     512KiB time=00:00:02.13 bitrate=1966.2kbits/s speed=0.014x elapsed=0:02:32.51    \nframe=   66 fps=0.4 q=35.9 size=     512KiB time=00:00:02.13 bitrate=1966.2kbits/s speed=0.0139x elapsed=0:02:33.05    \nframe=   66 fps=0.4 q=35.9 size=     512KiB time=00:00:02.13 bitrate=1966.2kbits/s speed=0.0139x elapsed=0:02:33.59    \nframe=   66 fps=0.4 q=35.9 size=     512KiB time=00:00:02.13 bitrate=1966.2kbits/s speed=0.0138x elapsed=0:02:34.11    \nframe=   67 fps=0.4 q=30.6 size=     512KiB time=00:00:02.16 bitrate=1936.0kbits/s speed=0.014x elapsed=0:02:34.64    \nframe=   68 fps=0.4 q=34.0 size=     512KiB time=00:00:02.20 bitrate=1906.7kbits/s speed=0.0142x elapsed=0:02:35.17    \nframe=   68 fps=0.4 q=34.0 size=     512KiB time=00:00:02.20 bitrate=1906.7kbits/s speed=0.0141x elapsed=0:02:35.71    \nframe=   68 fps=0.4 q=34.0 size=     512KiB time=00:00:02.20 bitrate=1906.7kbits/s speed=0.0141x elapsed=0:02:36.23    \nframe=   69 fps=0.4 q=35.8 size=     512KiB time=00:00:02.23 bitrate=1878.2kbits/s speed=0.0142x elapsed=0:02:36.75    \nframe=   69 fps=0.4 q=35.8 size=     512KiB time=00:00:02.23 bitrate=1878.2kbits/s speed=0.0142x elapsed=0:02:37.27    \nframe=   69 fps=0.4 q=35.8 size=     512KiB time=00:00:02.23 bitrate=1878.2kbits/s speed=0.0142x elapsed=0:02:37.79    \nframe=   70 fps=0.4 q=35.9 size=     512KiB time=00:00:02.26 bitrate=1850.6kbits/s speed=0.0143x elapsed=0:02:38.33    \nframe=   71 fps=0.4 q=30.5 size=     512KiB time=00:00:02.30 bitrate=1823.8kbits/s speed=0.0145x elapsed=0:02:38.85    \nframe=   72 fps=0.5 q=34.1 size=     512KiB time=00:00:02.33 bitrate=1797.7kbits/s speed=0.0146x elapsed=0:02:39.36    \nframe=   72 fps=0.5 q=34.1 size=     512KiB time=00:00:02.33 bitrate=1797.7kbits/s speed=0.0146x elapsed=0:02:39.87    \nframe=   73 fps=0.5 q=35.9 size=     512KiB time=00:00:02.36 bitrate=1772.4kbits/s speed=0.0148x elapsed=0:02:40.39    \nframe=   73 fps=0.5 q=35.9 size=     512KiB time=00:00:02.36 bitrate=1772.4kbits/s speed=0.0147x elapsed=0:02:40.91    \nframe=   74 fps=0.5 q=35.8 size=     512KiB time=00:00:02.40 bitrate=1747.8kbits/s speed=0.0149x elapsed=0:02:41.45    \nframe=   74 fps=0.5 q=35.8 size=     512KiB time=00:00:02.40 bitrate=1747.8kbits/s speed=0.0148x elapsed=0:02:41.98    \nframe=   74 fps=0.5 q=35.8 size=     512KiB time=00:00:02.40 bitrate=1747.8kbits/s speed=0.0148x elapsed=0:02:42.50    \nframe=   74 fps=0.5 q=35.8 size=     512KiB time=00:00:02.40 bitrate=1747.8kbits/s speed=0.0147x elapsed=0:02:43.02    \nframe=   75 fps=0.5 q=30.8 size=     512KiB time=00:00:02.43 bitrate=1723.8kbits/s speed=0.0149x elapsed=0:02:43.55    \nframe=   76 fps=0.5 q=33.8 size=     512KiB time=00:00:02.46 bitrate=1700.5kbits/s speed=0.015x elapsed=0:02:44.06    \nframe=   77 fps=0.5 q=35.9 size=     512KiB time=00:00:02.50 bitrate=1677.9kbits/s speed=0.0152x elapsed=0:02:44.58    \nframe=   77 fps=0.5 q=35.9 size=     512KiB time=00:00:02.50 bitrate=1677.9kbits/s speed=0.0151x elapsed=0:02:45.11    \nframe=   77 fps=0.5 q=35.9 size=     512KiB time=00:00:02.50 bitrate=1677.9kbits/s speed=0.0151x elapsed=0:02:45.64    \nframe=   78 fps=0.5 q=36.0 size=     512KiB time=00:00:02.53 bitrate=1655.8kbits/s speed=0.0152x elapsed=0:02:46.23    \nframe=   78 fps=0.5 q=36.0 size=     512KiB time=00:00:02.53 bitrate=1655.8kbits/s speed=0.0152x elapsed=0:02:46.77    \nframe=   78 fps=0.5 q=36.0 size=     512KiB time=00:00:02.53 bitrate=1655.8kbits/s speed=0.0151x elapsed=0:02:47.31    \nframe=   79 fps=0.5 q=30.9 size=     768KiB time=00:00:02.56 bitrate=2451.4kbits/s speed=0.0153x elapsed=0:02:47.85    \nframe=   80 fps=0.5 q=33.8 size=     768KiB time=00:00:02.60 bitrate=2419.9kbits/s speed=0.0154x elapsed=0:02:48.40    \nframe=   80 fps=0.5 q=33.8 size=     768KiB time=00:00:02.60 bitrate=2419.9kbits/s speed=0.0154x elapsed=0:02:48.93    \nframe=   81 fps=0.5 q=35.9 size=     768KiB time=00:00:02.63 bitrate=2389.3kbits/s speed=0.0155x elapsed=0:02:49.44    \nframe=   81 fps=0.5 q=35.9 size=     768KiB time=00:00:02.63 bitrate=2389.3kbits/s speed=0.0155x elapsed=0:02:49.96    \nframe=   82 fps=0.5 q=36.0 size=     768KiB time=00:00:02.66 bitrate=2359.4kbits/s speed=0.0156x elapsed=0:02:50.48    \nframe=   82 fps=0.5 q=36.0 size=     768KiB time=00:00:02.66 bitrate=2359.4kbits/s speed=0.0156x elapsed=0:02:51.00    \nframe=   82 fps=0.5 q=36.0 size=     768KiB time=00:00:02.66 bitrate=2359.4kbits/s speed=0.0155x elapsed=0:02:51.53    \nframe=   83 fps=0.5 q=30.6 size=     768KiB time=00:00:02.70 bitrate=2330.3kbits/s speed=0.0157x elapsed=0:02:52.05    \nframe=   83 fps=0.5 q=30.6 size=     768KiB time=00:00:02.70 bitrate=2330.3kbits/s speed=0.0156x elapsed=0:02:52.56    \nframe=   83 fps=0.5 q=30.6 size=     768KiB time=00:00:02.70 bitrate=2330.3kbits/s speed=0.0156x elapsed=0:02:53.07    \nframe=   83 fps=0.5 q=30.6 size=     768KiB time=00:00:02.70 bitrate=2330.3kbits/s speed=0.0156x elapsed=0:02:53.59    \nframe=   84 fps=0.5 q=33.9 size=     768KiB time=00:00:02.73 bitrate=2301.9kbits/s speed=0.0157x elapsed=0:02:54.11    \nframe=   84 fps=0.5 q=33.9 size=     768KiB time=00:00:02.73 bitrate=2301.9kbits/s speed=0.0157x elapsed=0:02:54.62    \nframe=   85 fps=0.5 q=36.1 size=     768KiB time=00:00:02.76 bitrate=2274.1kbits/s speed=0.0158x elapsed=0:02:55.14    \nframe=   85 fps=0.5 q=36.1 size=     768KiB time=00:00:02.76 bitrate=2274.1kbits/s speed=0.0157x elapsed=0:02:55.67    \nframe=   86 fps=0.5 q=36.1 size=     768KiB time=00:00:02.80 bitrate=2247.1kbits/s speed=0.0159x elapsed=0:02:56.19    \nframe=   86 fps=0.5 q=36.1 size=     768KiB time=00:00:02.80 bitrate=2247.1kbits/s speed=0.0158x elapsed=0:02:56.70    \nframe=   87 fps=0.5 q=30.7 size=     768KiB time=00:00:02.83 bitrate=2220.6kbits/s speed=0.016x elapsed=0:02:57.22    \nframe=   87 fps=0.5 q=30.7 size=     768KiB time=00:00:02.83 bitrate=2220.6kbits/s speed=0.0159x elapsed=0:02:57.74    \nframe=   88 fps=0.5 q=34.0 size=     768KiB time=00:00:02.86 bitrate=2194.8kbits/s speed=0.0161x elapsed=0:02:58.29    \nframe=   88 fps=0.5 q=34.0 size=     768KiB time=00:00:02.86 bitrate=2194.8kbits/s speed=0.016x elapsed=0:02:58.83    \nframe=   88 fps=0.5 q=34.0 size=     768KiB time=00:00:02.86 bitrate=2194.8kbits/s speed=0.016x elapsed=0:02:59.36    \nframe=   88 fps=0.5 q=34.0 size=     768KiB time=00:00:02.86 bitrate=2194.8kbits/s speed=0.0159x elapsed=0:02:59.88    \nframe=   89 fps=0.5 q=36.2 size=     768KiB time=00:00:02.90 bitrate=2169.6kbits/s speed=0.0161x elapsed=0:03:00.39    \nframe=   89 fps=0.5 q=36.2 size=     768KiB time=00:00:02.90 bitrate=2169.6kbits/s speed=0.016x elapsed=0:03:00.90    \nframe=   89 fps=0.5 q=36.2 size=     768KiB time=00:00:02.90 bitrate=2169.6kbits/s speed=0.016x elapsed=0:03:01.42    \nframe=   90 fps=0.5 q=36.1 size=     768KiB time=00:00:02.93 bitrate=2144.9kbits/s speed=0.0161x elapsed=0:03:01.94    \nframe=   90 fps=0.5 q=36.1 size=     768KiB time=00:00:02.93 bitrate=2144.9kbits/s speed=0.0161x elapsed=0:03:02.46    \nframe=   91 fps=0.5 q=30.7 size=     768KiB time=00:00:02.96 bitrate=2120.8kbits/s speed=0.0162x elapsed=0:03:03.00    \nframe=   92 fps=0.5 q=34.2 size=     768KiB time=00:00:03.00 bitrate=2097.3kbits/s speed=0.0163x elapsed=0:03:03.52    \nframe=   92 fps=0.5 q=34.2 size=     768KiB time=00:00:03.00 bitrate=2097.3kbits/s speed=0.0163x elapsed=0:03:04.06    \nframe=   92 fps=0.5 q=34.2 size=     768KiB time=00:00:03.00 bitrate=2097.3kbits/s speed=0.0162x elapsed=0:03:04.65    \nframe=   92 fps=0.5 q=34.2 size=     768KiB time=00:00:03.00 bitrate=2097.3kbits/s speed=0.0162x elapsed=0:03:05.21    \nframe=   92 fps=0.5 q=34.2 size=     768KiB time=00:00:03.00 bitrate=2097.3kbits/s speed=0.0162x elapsed=0:03:05.73    \nframe=   93 fps=0.5 q=36.2 size=     768KiB time=00:00:03.03 bitrate=2074.2kbits/s speed=0.0163x elapsed=0:03:06.34    \nframe=   93 fps=0.5 q=36.2 size=     768KiB time=00:00:03.03 bitrate=2074.2kbits/s speed=0.0162x elapsed=0:03:06.94    \nframe=   93 fps=0.5 q=36.2 size=     768KiB time=00:00:03.03 bitrate=2074.2kbits/s speed=0.0162x elapsed=0:03:07.51    \nframe=   93 fps=0.5 q=36.2 size=     768KiB time=00:00:03.03 bitrate=2074.2kbits/s speed=0.0161x elapsed=0:03:08.05    \nframe=   93 fps=0.5 q=36.2 size=     768KiB time=00:00:03.03 bitrate=2074.2kbits/s speed=0.0161x elapsed=0:03:08.57    \nframe=   93 fps=0.5 q=36.2 size=     768KiB time=00:00:03.03 bitrate=2074.2kbits/s speed=0.016x elapsed=0:03:09.09    \nframe=   93 fps=0.5 q=36.2 size=     768KiB time=00:00:03.03 bitrate=2074.2kbits/s speed=0.016x elapsed=0:03:09.61    \nframe=   93 fps=0.5 q=36.2 size=     768KiB time=00:00:03.03 bitrate=2074.2kbits/s speed=0.016x elapsed=0:03:10.16    \nframe=   94 fps=0.5 q=36.1 size=     768KiB time=00:00:03.06 bitrate=2051.7kbits/s speed=0.0161x elapsed=0:03:10.69    \nframe=   94 fps=0.5 q=36.1 size=     768KiB time=00:00:03.06 bitrate=2051.7kbits/s speed=0.016x elapsed=0:03:11.21    \nframe=   94 fps=0.5 q=36.1 size=     768KiB time=00:00:03.06 bitrate=2051.7kbits/s speed=0.016x elapsed=0:03:11.73    \nframe=   94 fps=0.5 q=36.1 size=     768KiB time=00:00:03.06 bitrate=2051.7kbits/s speed=0.016x elapsed=0:03:12.25    \nframe=   95 fps=0.5 q=30.6 size=     768KiB time=00:00:03.10 bitrate=2029.6kbits/s speed=0.0161x elapsed=0:03:12.77    \nframe=   96 fps=0.5 q=34.0 size=     768KiB time=00:00:03.13 bitrate=2008.0kbits/s speed=0.0162x elapsed=0:03:13.29    \nframe=   97 fps=0.5 q=36.2 size=     768KiB time=00:00:03.16 bitrate=1986.9kbits/s speed=0.0163x elapsed=0:03:13.82    \nframe=   97 fps=0.5 q=36.2 size=     768KiB time=00:00:03.16 bitrate=1986.9kbits/s speed=0.0163x elapsed=0:03:14.35    \nframe=   97 fps=0.5 q=36.2 size=     768KiB time=00:00:03.16 bitrate=1986.9kbits/s speed=0.0162x elapsed=0:03:14.89    \nframe=   97 fps=0.5 q=36.2 size=     768KiB time=00:00:03.16 bitrate=1986.9kbits/s speed=0.0162x elapsed=0:03:15.41    \nframe=   98 fps=0.5 q=36.1 size=     768KiB time=00:00:03.20 bitrate=1966.2kbits/s speed=0.0163x elapsed=0:03:15.93    \nframe=   98 fps=0.5 q=36.1 size=     768KiB time=00:00:03.20 bitrate=1966.2kbits/s speed=0.0163x elapsed=0:03:16.44    \nframe=   99 fps=0.5 q=30.4 size=     768KiB time=00:00:03.23 bitrate=1945.9kbits/s speed=0.0164x elapsed=0:03:16.97    \nframe=  100 fps=0.5 q=33.9 size=     768KiB time=00:00:03.26 bitrate=1926.1kbits/s speed=0.0165x elapsed=0:03:17.48    \nframe=  100 fps=0.5 q=33.9 size=     768KiB time=00:00:03.26 bitrate=1926.1kbits/s speed=0.0165x elapsed=0:03:18.01    \nframe=  101 fps=0.5 q=36.1 size=     768KiB time=00:00:03.30 bitrate=1906.6kbits/s speed=0.0166x elapsed=0:03:18.52    \nframe=  101 fps=0.5 q=36.1 size=     768KiB time=00:00:03.30 bitrate=1906.6kbits/s speed=0.0166x elapsed=0:03:19.03    \nframe=  101 fps=0.5 q=36.1 size=     768KiB time=00:00:03.30 bitrate=1906.6kbits/s speed=0.0165x elapsed=0:03:19.55    \nframe=  101 fps=0.5 q=36.1 size=     768KiB time=00:00:03.30 bitrate=1906.6kbits/s speed=0.0165x elapsed=0:03:20.07    \nframe=  102 fps=0.5 q=36.2 size=     768KiB time=00:00:03.33 bitrate=1887.5kbits/s speed=0.0166x elapsed=0:03:20.58    \nframe=  102 fps=0.5 q=36.2 size=     768KiB time=00:00:03.33 bitrate=1887.5kbits/s speed=0.0166x elapsed=0:03:21.10    \nframe=  102 fps=0.5 q=36.2 size=     768KiB time=00:00:03.33 bitrate=1887.5kbits/s speed=0.0165x elapsed=0:03:21.64    \nframe=  103 fps=0.5 q=30.5 size=     768KiB time=00:00:03.36 bitrate=1868.9kbits/s speed=0.0166x elapsed=0:03:22.24    \nframe=  103 fps=0.5 q=30.5 size=     768KiB time=00:00:03.36 bitrate=1868.9kbits/s speed=0.0166x elapsed=0:03:22.80    \nframe=  103 fps=0.5 q=30.5 size=     768KiB time=00:00:03.36 bitrate=1868.9kbits/s speed=0.0166x elapsed=0:03:23.35    \nframe=  103 fps=0.5 q=30.5 size=     768KiB time=00:00:03.36 bitrate=1868.9kbits/s speed=0.0165x elapsed=0:03:23.91    \nframe=  104 fps=0.5 q=34.0 size=    1024KiB time=00:00:03.40 bitrate=2467.3kbits/s speed=0.0166x elapsed=0:03:24.44    \nframe=  104 fps=0.5 q=34.0 size=    1024KiB time=00:00:03.40 bitrate=2467.3kbits/s speed=0.0166x elapsed=0:03:24.99    \nframe=  105 fps=0.5 q=36.3 size=    1024KiB time=00:00:03.43 bitrate=2443.4kbits/s speed=0.0167x elapsed=0:03:25.53    \nframe=  106 fps=0.5 q=36.5 size=    1024KiB time=00:00:03.46 bitrate=2419.9kbits/s speed=0.0168x elapsed=0:03:26.07    \nframe=  106 fps=0.5 q=36.5 size=    1024KiB time=00:00:03.46 bitrate=2419.9kbits/s speed=0.0168x elapsed=0:03:26.63    \nframe=  106 fps=0.5 q=36.5 size=    1024KiB time=00:00:03.46 bitrate=2419.9kbits/s speed=0.0167x elapsed=0:03:27.18    \nframe=  106 fps=0.5 q=36.5 size=    1024KiB time=00:00:03.46 bitrate=2419.9kbits/s speed=0.0167x elapsed=0:03:27.70    \nframe=  106 fps=0.5 q=36.5 size=    1024KiB time=00:00:03.46 bitrate=2419.9kbits/s speed=0.0166x elapsed=0:03:28.24    \nframe=  106 fps=0.5 q=36.5 size=    1024KiB time=00:00:03.46 bitrate=2419.9kbits/s speed=0.0166x elapsed=0:03:28.81    \nframe=  106 fps=0.5 q=36.5 size=    1024KiB time=00:00:03.46 bitrate=2419.9kbits/s speed=0.0166x elapsed=0:03:29.39    \nframe=  107 fps=0.5 q=31.2 size=    1024KiB time=00:00:03.50 bitrate=2396.8kbits/s speed=0.0167x elapsed=0:03:29.93    \nframe=  107 fps=0.5 q=31.2 size=    1024KiB time=00:00:03.50 bitrate=2396.8kbits/s speed=0.0166x elapsed=0:03:30.48    \nframe=  107 fps=0.5 q=31.2 size=    1024KiB time=00:00:03.50 bitrate=2396.8kbits/s speed=0.0166x elapsed=0:03:31.01    \nframe=  108 fps=0.5 q=34.4 size=    1024KiB time=00:00:03.53 bitrate=2374.2kbits/s speed=0.0167x elapsed=0:03:31.57    \nframe=  108 fps=0.5 q=34.4 size=    1024KiB time=00:00:03.53 bitrate=2374.2kbits/s speed=0.0167x elapsed=0:03:32.13    \nframe=  108 fps=0.5 q=34.4 size=    1024KiB time=00:00:03.53 bitrate=2374.2kbits/s speed=0.0166x elapsed=0:03:32.64    \nframe=  108 fps=0.5 q=34.4 size=    1024KiB time=00:00:03.53 bitrate=2374.2kbits/s speed=0.0166x elapsed=0:03:33.15    \nframe=  108 fps=0.5 q=34.4 size=    1024KiB time=00:00:03.53 bitrate=2374.2kbits/s speed=0.0165x elapsed=0:03:33.71    \nframe=  108 fps=0.5 q=34.4 size=    1024KiB time=00:00:03.53 bitrate=2374.2kbits/s speed=0.0165x elapsed=0:03:34.27    \nframe=  108 fps=0.5 q=34.4 size=    1024KiB time=00:00:03.53 bitrate=2374.2kbits/s speed=0.0164x elapsed=0:03:34.84    \nframe=  108 fps=0.5 q=34.4 size=    1024KiB time=00:00:03.53 bitrate=2374.2kbits/s speed=0.0164x elapsed=0:03:35.39    \nframe=  108 fps=0.5 q=34.4 size=    1024KiB time=00:00:03.53 bitrate=2374.2kbits/s speed=0.0164x elapsed=0:03:35.94    \nframe=  108 fps=0.5 q=34.4 size=    1024KiB time=00:00:03.53 bitrate=2374.2kbits/s speed=0.0163x elapsed=0:03:36.49    \nframe=  109 fps=0.5 q=36.9 size=    1024KiB time=00:00:03.56 bitrate=2352.0kbits/s speed=0.0164x elapsed=0:03:37.06    \nframe=  110 fps=0.5 q=37.2 size=    1024KiB time=00:00:03.60 bitrate=2330.3kbits/s speed=0.0165x elapsed=0:03:37.57    \nframe=  110 fps=0.5 q=37.2 size=    1024KiB time=00:00:03.60 bitrate=2330.3kbits/s speed=0.0165x elapsed=0:03:38.12    \nframe=  110 fps=0.5 q=37.2 size=    1024KiB time=00:00:03.60 bitrate=2330.3kbits/s speed=0.0165x elapsed=0:03:38.65    \nframe=  110 fps=0.5 q=37.2 size=    1024KiB time=00:00:03.60 bitrate=2330.3kbits/s speed=0.0164x elapsed=0:03:39.18    \nframe=  111 fps=0.5 q=31.0 size=    1024KiB time=00:00:03.63 bitrate=2308.9kbits/s speed=0.0165x elapsed=0:03:39.74    \nframe=  111 fps=0.5 q=31.0 size=    1024KiB time=00:00:03.63 bitrate=2308.9kbits/s speed=0.0165x elapsed=0:03:40.28    \nframe=  112 fps=0.5 q=34.8 size=    1024KiB time=00:00:03.66 bitrate=2287.9kbits/s speed=0.0166x elapsed=0:03:40.84    \nframe=  112 fps=0.5 q=34.8 size=    1024KiB time=00:00:03.66 bitrate=2287.9kbits/s speed=0.0166x elapsed=0:03:41.40    \nframe=  112 fps=0.5 q=34.8 size=    1024KiB time=00:00:03.66 bitrate=2287.9kbits/s speed=0.0165x elapsed=0:03:41.98    \nframe=  112 fps=0.5 q=34.8 size=    1024KiB time=00:00:03.66 bitrate=2287.9kbits/s speed=0.0165x elapsed=0:03:42.58    \nframe=  112 fps=0.5 q=34.8 size=    1024KiB time=00:00:03.66 bitrate=2287.9kbits/s speed=0.0164x elapsed=0:03:43.15    \nframe=  112 fps=0.5 q=34.8 size=    1024KiB time=00:00:03.66 bitrate=2287.9kbits/s speed=0.0164x elapsed=0:03:43.76    \nframe=  112 fps=0.5 q=34.8 size=    1024KiB time=00:00:03.66 bitrate=2287.9kbits/s speed=0.0163x elapsed=0:03:44.32    \nframe=  112 fps=0.5 q=34.8 size=    1024KiB time=00:00:03.66 bitrate=2287.9kbits/s speed=0.0163x elapsed=0:03:44.84    \nframe=  112 fps=0.5 q=34.8 size=    1024KiB time=00:00:03.66 bitrate=2287.9kbits/s speed=0.0163x elapsed=0:03:45.37    \nframe=  112 fps=0.5 q=34.8 size=    1024KiB time=00:00:03.66 bitrate=2287.9kbits/s speed=0.0162x elapsed=0:03:45.90    \nframe=  112 fps=0.5 q=34.8 size=    1024KiB time=00:00:03.66 bitrate=2287.9kbits/s speed=0.0162x elapsed=0:03:46.45    \nframe=  112 fps=0.5 q=34.8 size=    1024KiB time=00:00:03.66 bitrate=2287.9kbits/s speed=0.0162x elapsed=0:03:46.99    \nframe=  112 fps=0.5 q=34.8 size=    1024KiB time=00:00:03.66 bitrate=2287.9kbits/s speed=0.0161x elapsed=0:03:47.54    \nframe=  113 fps=0.5 q=37.0 size=    1024KiB time=00:00:03.70 bitrate=2267.3kbits/s speed=0.0162x elapsed=0:03:48.04    \nframe=  113 fps=0.5 q=37.0 size=    1024KiB time=00:00:03.70 bitrate=2267.3kbits/s speed=0.0162x elapsed=0:03:48.57    \nframe=  114 fps=0.5 q=37.0 size=    1024KiB time=00:00:03.73 bitrate=2247.0kbits/s speed=0.0163x elapsed=0:03:49.08    \nframe=  114 fps=0.5 q=37.0 size=    1024KiB time=00:00:03.73 bitrate=2247.0kbits/s speed=0.0163x elapsed=0:03:49.60    \nframe=  115 fps=0.5 q=30.8 size=    1024KiB time=00:00:03.76 bitrate=2227.2kbits/s speed=0.0164x elapsed=0:03:50.13    \nframe=  116 fps=0.5 q=34.9 size=    1024KiB time=00:00:03.80 bitrate=2207.6kbits/s speed=0.0165x elapsed=0:03:50.65    \nframe=  116 fps=0.5 q=34.9 size=    1024KiB time=00:00:03.80 bitrate=2207.6kbits/s speed=0.0164x elapsed=0:03:51.15    \nframe=  116 fps=0.5 q=34.9 size=    1024KiB time=00:00:03.80 bitrate=2207.6kbits/s speed=0.0164x elapsed=0:03:51.68    \nframe=  116 fps=0.5 q=34.9 size=    1024KiB time=00:00:03.80 bitrate=2207.6kbits/s speed=0.0164x elapsed=0:03:52.20    \nframe=  117 fps=0.5 q=37.1 size=    1024KiB time=00:00:03.83 bitrate=2188.4kbits/s speed=0.0165x elapsed=0:03:52.72    \nframe=  117 fps=0.5 q=37.1 size=    1024KiB time=00:00:03.83 bitrate=2188.4kbits/s speed=0.0164x elapsed=0:03:53.26    \nframe=  117 fps=0.5 q=37.1 size=    1024KiB time=00:00:03.83 bitrate=2188.4kbits/s speed=0.0164x elapsed=0:03:53.79    \nframe=  119 fps=0.5 q=30.9 size=    1024KiB time=00:00:03.90 bitrate=2151.0kbits/s speed=0.0166x elapsed=0:03:54.32    \nframe=  119 fps=0.5 q=30.9 size=    1024KiB time=00:00:03.90 bitrate=2151.0kbits/s speed=0.0166x elapsed=0:03:54.85    \nframe=  119 fps=0.5 q=30.9 size=    1024KiB time=00:00:03.90 bitrate=2151.0kbits/s speed=0.0166x elapsed=0:03:55.38    \nframe=  120 fps=0.5 q=34.6 size=    1024KiB time=00:00:03.93 bitrate=2132.8kbits/s speed=0.0167x elapsed=0:03:55.91    \nframe=  120 fps=0.5 q=34.6 size=    1024KiB time=00:00:03.93 bitrate=2132.8kbits/s speed=0.0166x elapsed=0:03:56.42    \nframe=  121 fps=0.5 q=37.0 size=    1024KiB time=00:00:03.96 bitrate=2114.9kbits/s speed=0.0167x elapsed=0:03:56.95    \nframe=  122 fps=0.5 q=37.0 size=    1024KiB time=00:00:04.00 bitrate=2097.2kbits/s speed=0.0168x elapsed=0:03:57.48    \nframe=  122 fps=0.5 q=37.0 size=    1024KiB time=00:00:04.00 bitrate=2097.2kbits/s speed=0.0168x elapsed=0:03:57.99    \nframe=  122 fps=0.5 q=37.0 size=    1024KiB time=00:00:04.00 bitrate=2097.2kbits/s speed=0.0168x elapsed=0:03:58.52    \nframe=  123 fps=0.5 q=30.9 size=    1024KiB time=00:00:04.03 bitrate=2079.9kbits/s speed=0.0169x elapsed=0:03:59.04    \nframe=  123 fps=0.5 q=30.9 size=    1024KiB time=00:00:04.03 bitrate=2079.9kbits/s speed=0.0168x elapsed=0:03:59.56    \nframe=  124 fps=0.5 q=34.6 size=    1024KiB time=00:00:04.06 bitrate=2062.9kbits/s speed=0.0169x elapsed=0:04:00.09    \nframe=  124 fps=0.5 q=34.6 size=    1024KiB time=00:00:04.06 bitrate=2062.9kbits/s speed=0.0169x elapsed=0:04:00.62    \nframe=  125 fps=0.5 q=36.9 size=    1024KiB time=00:00:04.10 bitrate=2046.1kbits/s speed=0.017x elapsed=0:04:01.14    \nframe=  125 fps=0.5 q=36.9 size=    1024KiB time=00:00:04.10 bitrate=2046.1kbits/s speed=0.017x elapsed=0:04:01.66    \nframe=  125 fps=0.5 q=36.9 size=    1024KiB time=00:00:04.10 bitrate=2046.1kbits/s speed=0.0169x elapsed=0:04:02.18    \nframe=  126 fps=0.5 q=36.7 size=    1024KiB time=00:00:04.13 bitrate=2029.6kbits/s speed=0.017x elapsed=0:04:02.69    \nframe=  126 fps=0.5 q=36.7 size=    1024KiB time=00:00:04.13 bitrate=2029.6kbits/s speed=0.017x elapsed=0:04:03.24    \nframe=  127 fps=0.5 q=30.9 size=    1024KiB time=00:00:04.16 bitrate=2013.4kbits/s speed=0.0171x elapsed=0:04:03.76    \nframe=  127 fps=0.5 q=30.9 size=    1024KiB time=00:00:04.16 bitrate=2013.4kbits/s speed=0.0171x elapsed=0:04:04.29    \nframe=  128 fps=0.5 q=34.4 size=    1280KiB time=00:00:04.20 bitrate=2496.7kbits/s speed=0.0172x elapsed=0:04:04.85    \nframe=  128 fps=0.5 q=34.4 size=    1280KiB time=00:00:04.20 bitrate=2496.7kbits/s speed=0.0171x elapsed=0:04:05.37    \nframe=  128 fps=0.5 q=34.4 size=    1280KiB time=00:00:04.20 bitrate=2496.7kbits/s speed=0.0171x elapsed=0:04:05.90    \nframe=  129 fps=0.5 q=36.6 size=    1280KiB time=00:00:04.23 bitrate=2477.0kbits/s speed=0.0172x elapsed=0:04:06.42    \nframe=  129 fps=0.5 q=36.6 size=    1280KiB time=00:00:04.23 bitrate=2477.0kbits/s speed=0.0171x elapsed=0:04:06.94    \nframe=  130 fps=0.5 q=36.5 size=    1280KiB time=00:00:04.26 bitrate=2457.7kbits/s speed=0.0172x elapsed=0:04:07.46    \nframe=  130 fps=0.5 q=36.5 size=    1280KiB time=00:00:04.26 bitrate=2457.7kbits/s speed=0.0172x elapsed=0:04:07.96    \nframe=  130 fps=0.5 q=36.5 size=    1280KiB time=00:00:04.26 bitrate=2457.7kbits/s speed=0.0172x elapsed=0:04:08.48    \nframe=  130 fps=0.5 q=36.5 size=    1280KiB time=00:00:04.26 bitrate=2457.7kbits/s speed=0.0171x elapsed=0:04:09.01    \nframe=  131 fps=0.5 q=30.8 size=    1280KiB time=00:00:04.30 bitrate=2438.6kbits/s speed=0.0172x elapsed=0:04:09.54    \nframe=  131 fps=0.5 q=30.8 size=    1280KiB time=00:00:04.30 bitrate=2438.6kbits/s speed=0.0172x elapsed=0:04:10.06    \nframe=  132 fps=0.5 q=34.3 size=    1280KiB time=00:00:04.33 bitrate=2419.9kbits/s speed=0.0173x elapsed=0:04:10.58    \nframe=  132 fps=0.5 q=34.3 size=    1280KiB time=00:00:04.33 bitrate=2419.9kbits/s speed=0.0173x elapsed=0:04:11.09    \nframe=  133 fps=0.5 q=36.2 size=    1280KiB time=00:00:04.36 bitrate=2401.4kbits/s speed=0.0174x elapsed=0:04:11.62    \nframe=  133 fps=0.5 q=36.2 size=    1280KiB time=00:00:04.36 bitrate=2401.4kbits/s speed=0.0173x elapsed=0:04:12.16    \nframe=  133 fps=0.5 q=36.2 size=    1280KiB time=00:00:04.36 bitrate=2401.4kbits/s speed=0.0173x elapsed=0:04:12.69    \nframe=  134 fps=0.5 q=36.0 size=    1280KiB time=00:00:04.40 bitrate=2383.2kbits/s speed=0.0174x elapsed=0:04:13.21    \nframe=  135 fps=0.5 q=30.6 size=    1280KiB time=00:00:04.43 bitrate=2365.3kbits/s speed=0.0175x elapsed=0:04:13.74    \nframe=  135 fps=0.5 q=30.6 size=    1280KiB time=00:00:04.43 bitrate=2365.3kbits/s speed=0.0174x elapsed=0:04:14.26    \nframe=  135 fps=0.5 q=30.6 size=    1280KiB time=00:00:04.43 bitrate=2365.3kbits/s speed=0.0174x elapsed=0:04:14.78    \nframe=  135 fps=0.5 q=30.6 size=    1280KiB time=00:00:04.43 bitrate=2365.3kbits/s speed=0.0174x elapsed=0:04:15.30    \nframe=  135 fps=0.5 q=30.6 size=    1280KiB time=00:00:04.43 bitrate=2365.3kbits/s speed=0.0173x elapsed=0:04:15.82    \nframe=  136 fps=0.5 q=33.9 size=    1280KiB time=00:00:04.46 bitrate=2347.6kbits/s speed=0.0174x elapsed=0:04:16.34    \nframe=  136 fps=0.5 q=33.9 size=    1280KiB time=00:00:04.46 bitrate=2347.6kbits/s speed=0.0174x elapsed=0:04:16.86    \nframe=  137 fps=0.5 q=36.0 size=    1280KiB time=00:00:04.50 bitrate=2330.2kbits/s speed=0.0175x elapsed=0:04:17.38    \nframe=  137 fps=0.5 q=36.0 size=    1280KiB time=00:00:04.50 bitrate=2330.2kbits/s speed=0.0174x elapsed=0:04:17.91    \nframe=  137 fps=0.5 q=36.0 size=    1280KiB time=00:00:04.50 bitrate=2330.2kbits/s speed=0.0174x elapsed=0:04:18.46    \nframe=  137 fps=0.5 q=36.0 size=    1280KiB time=00:00:04.50 bitrate=2330.2kbits/s speed=0.0174x elapsed=0:04:18.96    \nframe=  138 fps=0.5 q=35.9 size=    1280KiB time=00:00:04.53 bitrate=2313.1kbits/s speed=0.0175x elapsed=0:04:19.49    \nframe=  138 fps=0.5 q=35.9 size=    1280KiB time=00:00:04.53 bitrate=2313.1kbits/s speed=0.0174x elapsed=0:04:20.01    \nframe=  139 fps=0.5 q=30.6 size=    1280KiB time=00:00:04.56 bitrate=2296.2kbits/s speed=0.0175x elapsed=0:04:20.53    \nframe=  139 fps=0.5 q=30.6 size=    1280KiB time=00:00:04.56 bitrate=2296.2kbits/s speed=0.0175x elapsed=0:04:21.05    \nframe=  140 fps=0.5 q=33.5 size=    1280KiB time=00:00:04.60 bitrate=2279.6kbits/s speed=0.0176x elapsed=0:04:21.56    \nframe=  140 fps=0.5 q=33.5 size=    1280KiB time=00:00:04.60 bitrate=2279.6kbits/s speed=0.0176x elapsed=0:04:22.08    \nframe=  141 fps=0.5 q=35.1 size=    1280KiB time=00:00:04.63 bitrate=2263.2kbits/s speed=0.0176x elapsed=0:04:22.62    \nframe=  141 fps=0.5 q=35.1 size=    1280KiB time=00:00:04.63 bitrate=2263.2kbits/s speed=0.0176x elapsed=0:04:23.14    \nframe=  142 fps=0.5 q=35.1 size=    1280KiB time=00:00:04.66 bitrate=2247.0kbits/s speed=0.0177x elapsed=0:04:23.67    \nframe=  142 fps=0.5 q=35.1 size=    1280KiB time=00:00:04.66 bitrate=2247.0kbits/s speed=0.0177x elapsed=0:04:24.18    \nframe=  142 fps=0.5 q=35.1 size=    1280KiB time=00:00:04.66 bitrate=2247.0kbits/s speed=0.0176x elapsed=0:04:24.71    \nframe=  143 fps=0.5 q=30.5 size=    1280KiB time=00:00:04.70 bitrate=2231.1kbits/s speed=0.0177x elapsed=0:04:25.25    \nframe=  144 fps=0.5 q=32.8 size=    1280KiB time=00:00:04.73 bitrate=2215.4kbits/s speed=0.0178x elapsed=0:04:25.80    \nframe=  144 fps=0.5 q=32.8 size=    1280KiB time=00:00:04.73 bitrate=2215.4kbits/s speed=0.0178x elapsed=0:04:26.31    \nframe=  144 fps=0.5 q=32.8 size=    1280KiB time=00:00:04.73 bitrate=2215.4kbits/s speed=0.0177x elapsed=0:04:26.84    \nframe=  144 fps=0.5 q=32.8 size=    1280KiB time=00:00:04.73 bitrate=2215.4kbits/s speed=0.0177x elapsed=0:04:27.39    \nframe=  145 fps=0.5 q=34.8 size=    1280KiB time=00:00:04.76 bitrate=2199.9kbits/s speed=0.0178x elapsed=0:04:27.91    \nframe=  145 fps=0.5 q=34.8 size=    1280KiB time=00:00:04.76 bitrate=2199.9kbits/s speed=0.0178x elapsed=0:04:28.42    \nframe=  145 fps=0.5 q=34.8 size=    1280KiB time=00:00:04.76 bitrate=2199.9kbits/s speed=0.0177x elapsed=0:04:28.94    \nframe=  146 fps=0.5 q=33.5 size=    1280KiB time=00:00:04.80 bitrate=2184.6kbits/s speed=0.0178x elapsed=0:04:29.46    \nframe=  146 fps=0.5 q=33.5 size=    1280KiB time=00:00:04.80 bitrate=2184.6kbits/s speed=0.0178x elapsed=0:04:29.98    \nframe=  146 fps=0.5 q=33.5 size=    1280KiB time=00:00:04.80 bitrate=2184.6kbits/s speed=0.0177x elapsed=0:04:30.51    \nframe=  146 fps=0.5 q=33.5 size=    1280KiB time=00:00:04.80 bitrate=2184.6kbits/s speed=0.0177x elapsed=0:04:31.04    \nframe=  147 fps=0.5 q=31.2 size=    1280KiB time=00:00:04.83 bitrate=2169.5kbits/s speed=0.0178x elapsed=0:04:31.57    \nframe=  148 fps=0.5 q=31.5 size=    1280KiB time=00:00:04.86 bitrate=2154.7kbits/s speed=0.0179x elapsed=0:04:32.10    \nframe=  148 fps=0.5 q=31.5 size=    1280KiB time=00:00:04.86 bitrate=2154.7kbits/s speed=0.0178x elapsed=0:04:32.65    \n[mp4 @ 000001ea020aaa80] Starting second pass: moving the moov atom to the beginning of the file\n[out#0/mp4 @ 000001ea020aa980] video:1497KiB audio:0KiB subtitle:0KiB other streams:0KiB global headers:2KiB muxing overhead: 0.345442%\nframe=  150 fps=0.5 q=33.1 Lsize=    1502KiB time=00:00:04.93 bitrate=2494.7kbits/s speed=0.0181x elapsed=0:04:33.02    \nx265 [info]: frame I:      1, Avg QP:33.29  kb/s: 7492.56 \nx265 [info]: frame P:     36, Avg QP:31.19  kb/s: 5534.59 \nx265 [info]: frame B:    113, Avg QP:35.80  kb/s: 1425.35 \nx265 [info]: Weighted P-Frames: Y:2.8% UV:2.8%\n\nencoded 150 frames in 272.75s (0.55 fps), 2452.01 kb/s, Avg QP:34.67\n",
  "seconds": 273.3390009403229,
  "probe_out": {}
}